<?xml version="1.0" standalone="no"?>
<!DOCTYPE svg PUBLIC "-//W3C//DTD SVG 20010904//EN"
 "http://www.w3.org/TR/2001/REC-SVG-20010904/DTD/svg10.dtd">
<svg version="1.0" xmlns="http://www.w3.org/2000/svg"
 width="303.000000pt" height="303.000000pt" viewBox="0 0 303.000000 303.000000"
 preserveAspectRatio="xMidYMid meet">
<metadata>
Created by potrace 1.11, written by Peter Selinger 2001-2013
</metadata>
<g transform="translate(0.000000,303.000000) scale(0.100000,-0.100000)"
fill="#000000" stroke="none">
<path d="M1558 3025 c-2 -1 -34 -5 -73 -9 -204 -17 -420 -76 -605 -164 -357
-170 -653 -499 -774 -862 -49 -148 -65 -263 -61 -450 4 -172 23 -285 75 -430
35 -96 109 -241 127 -247 6 -2 26 16 45 41 18 25 36 45 40 46 4 0 31 -35 61
-78 59 -83 125 -154 225 -245 63 -57 174 -137 189 -137 4 0 23 14 42 30 18 17
39 30 46 30 23 0 184 -122 263 -199 92 -89 131 -137 203 -246 28 -44 57 -83
62 -86 5 -4 40 2 76 13 80 24 115 27 117 11 1 -7 2 -20 3 -29 2 -26 65 -15
246 43 273 87 496 236 637 427 78 105 97 145 103 211 6 70 -16 122 -89 208
l-55 66 28 6 c70 15 163 5 260 -30 53 -18 61 -13 96 60 36 78 40 158 9 212
-31 53 -30 79 2 126 15 23 31 69 40 115 8 42 17 86 19 98 3 11 20 38 40 58 41
44 43 64 11 131 -38 81 -187 212 -320 280 -21 11 -51 32 -67 47 -25 22 -29 34
-29 77 0 28 -5 59 -11 69 -9 14 -6 35 11 92 12 41 24 82 25 90 4 23 -24 49
-61 56 -49 9 -59 27 -48 82 15 76 9 87 -69 142 -40 28 -82 53 -94 57 -13 3
-24 13 -24 24 -1 10 -2 24 -3 30 -2 17 -47 59 -85 79 -47 23 -111 40 -176 46
-45 4 -56 2 -82 -20 l-30 -25 -38 72 c-21 40 -43 75 -49 80 -9 6 -251 8 -258
2z m151 -114 c28 -16 138 -185 211 -326 34 -66 65 -121 69 -123 4 -1 6 68 6
154 -1 119 2 160 12 170 27 27 167 -8 202 -50 16 -19 9 -36 -94 -226 -56 -102
-74 -120 -127 -120 -32 0 -47 8 -91 48 -29 26 -54 50 -57 53 -23 25 -227 190
-274 220 -99 65 -221 102 -376 115 -47 3 -87 8 -88 9 -4 4 46 20 133 42 119
30 189 38 332 42 73 1 130 -2 142 -8z m-472 -170 c102 -19 168 -45 168 -67 0
-22 -53 -34 -99 -22 -54 14 -141 22 -226 20 -142 -2 -360 -77 -360 -122 0 -29
22 -34 81 -17 80 24 250 18 314 -11 59 -27 48 -41 -25 -32 -112 14 -252 -7
-389 -60 -110 -42 -145 -77 -103 -99 13 -7 35 -5 73 5 30 8 77 17 104 20 l50
6 -72 -37 c-40 -20 -73 -43 -73 -51 0 -8 -8 -14 -18 -14 -40 0 -191 -139 -282
-261 -57 -77 -142 -232 -176 -323 -14 -38 -19 -45 -24 -30 -7 18 -6 37 5 137
33 301 273 663 570 859 108 71 153 93 212 103 20 3 38 7 40 8 7 7 173 -2 230
-12z m1076 -85 c18 -7 45 -27 61 -45 l29 -31 -18 -39 c-10 -22 -25 -47 -34
-55 -16 -14 -193 -77 -199 -71 -12 11 74 202 105 238 19 20 16 20 56 3z m-713
-192 c103 -41 172 -104 114 -104 -9 0 -48 16 -87 35 -81 40 -120 43 -192 16
-79 -31 -108 -48 -144 -85 -51 -52 -40 -73 61 -123 136 -69 176 -127 137 -205
-28 -55 -68 -200 -75 -271 -6 -70 11 -140 37 -145 10 -2 36 24 70 70 113 153
148 233 155 359 2 38 6 74 8 78 3 5 20 5 38 2 38 -8 109 5 120 22 4 7 5 24 2
40 -3 15 -1 27 4 27 6 0 25 16 44 36 47 51 81 66 141 63 56 -3 106 -18 168
-49 21 -11 47 -20 58 -20 10 0 33 -14 51 -30 18 -17 35 -29 37 -26 8 8 -26 76
-42 82 -8 3 -15 12 -15 19 0 7 -18 24 -41 39 -22 15 -39 32 -36 39 5 17 97 46
149 47 39 0 48 -3 53 -21 15 -47 -48 -67 -116 -36 -58 26 -70 4 -15 -28 25
-15 46 -30 46 -33 0 -4 29 -38 65 -76 52 -56 62 -73 55 -87 -15 -27 -12 -54 8
-71 9 -9 73 -48 142 -88 179 -102 308 -203 292 -228 -17 -26 -132 -34 -215
-16 -78 18 -97 14 -97 -20 0 -51 22 -73 84 -83 49 -8 101 -64 111 -121 18
-104 -289 -235 -381 -163 -15 11 -35 21 -45 21 -10 0 -23 9 -29 19 -11 22 -60
22 -99 1 -13 -6 -25 -10 -27 -7 -2 2 17 15 43 28 39 19 49 30 51 54 2 16 17
44 33 63 28 32 36 56 22 65 -5 3 -33 8 -63 12 -30 4 -58 9 -61 11 -4 2 -24 6
-45 10 -45 6 -124 42 -124 55 0 5 -10 15 -23 23 -18 13 -30 13 -60 4 -22 -7
-37 -18 -37 -27 0 -16 27 -153 36 -183 4 -14 -1 -16 -28 -11 -18 3 -41 12 -51
21 -54 51 -87 87 -87 98 0 20 -49 69 -59 59 -9 -9 -24 -67 -23 -90 1 -25 34
-141 42 -149 6 -6 10 -19 10 -31 0 -22 86 -110 188 -194 33 -27 60 -61 73 -90
12 -25 24 -50 27 -56 3 -5 -1 -5 -9 1 -8 6 -76 57 -152 114 -125 94 -197 166
-197 199 0 6 -9 20 -21 32 -33 33 -37 173 -9 314 33 166 33 165 21 165 -20 0
-78 -131 -117 -265 -9 -33 -21 -65 -25 -70 -5 -6 -6 -26 -3 -45 3 -19 5 -44 4
-55 -19 -208 25 -268 334 -450 306 -181 330 -203 329 -300 -1 -68 -44 -151
-121 -233 -55 -59 -145 -132 -162 -132 -4 0 -3 18 2 40 6 22 7 48 3 57 -5 10
-8 20 -8 23 1 3 4 23 7 44 10 62 8 176 -4 236 -23 121 -95 219 -235 323 -124
92 -163 127 -216 194 -69 86 -89 136 -91 227 -2 42 -5 76 -8 76 -9 0 -53 -49
-79 -87 -12 -18 -26 -33 -31 -33 -9 0 -32 61 -25 68 2 3 -1 14 -6 25 -33 60
-31 176 4 244 15 28 31 54 37 58 5 3 10 10 10 15 0 14 -83 -10 -147 -44 -37
-20 -63 -29 -63 -22 0 31 33 118 46 123 8 3 31 30 51 60 55 84 79 95 189 87
77 -6 93 -4 107 10 29 29 5 52 -83 80 -121 39 -184 72 -219 111 -39 44 -39 62
-1 109 66 83 164 144 276 169 61 14 77 12 154 -19z m-788 -456 c-35 -147 -51
-283 -49 -418 2 -125 3 -126 44 -212 45 -93 119 -178 174 -197 31 -11 31 -11
16 12 -43 60 -91 169 -112 250 -18 73 -22 112 -19 196 3 109 5 125 25 199 12
45 29 56 30 20 0 -13 2 -32 4 -43 2 -11 7 -36 10 -55 32 -188 160 -373 390
-568 369 -313 399 -342 436 -441 27 -73 31 -190 7 -214 -9 -9 -22 -34 -29 -54
-17 -54 -49 -116 -56 -109 -4 3 -8 32 -10 63 -11 160 -79 267 -260 406 -34 26
-69 47 -78 47 -10 0 -62 36 -118 80 -55 44 -102 78 -105 76 -6 -6 73 -117 121
-170 20 -22 34 -43 31 -48 -3 -5 28 -42 68 -83 117 -121 165 -203 172 -300 3
-32 -11 -95 -24 -108 -4 -5 -24 22 -44 61 -46 87 -109 158 -205 232 -138 105
-179 147 -216 225 -19 39 -35 79 -35 87 0 8 -9 23 -19 32 -16 15 -23 16 -43 5
-32 -17 -38 -28 -38 -72 0 -38 0 -39 -32 -32 -38 9 -92 57 -153 135 -70 91
-119 202 -129 297 -3 28 -10 62 -15 75 -4 13 -7 54 -5 91 3 66 2 68 -18 61
-12 -4 -28 -13 -36 -20 -7 -8 -20 -14 -27 -14 -20 0 -72 -56 -106 -114 l-30
-51 6 88 c17 286 155 514 379 627 49 25 91 51 94 58 3 9 8 10 15 3 8 -8 4 -38
-11 -103z m1640 -1235 c18 -38 17 -49 -15 -121 -30 -67 -95 -158 -168 -236
-68 -73 -87 -77 -43 -9 96 149 149 249 149 284 0 9 6 23 12 31 7 8 16 29 19
46 8 39 29 41 46 5z"/>
<path d="M2124 2150 c51 -56 47 -70 -27 -103 -34 -15 -69 -27 -77 -27 -8 0 12
-16 45 -35 49 -28 67 -33 97 -28 46 7 141 -25 134 -44 -3 -8 2 -13 12 -13 10
0 47 -25 82 -55 64 -55 123 -81 154 -69 22 9 20 21 -6 38 -187 116 -238 146
-245 144 -4 -1 -25 6 -46 15 l-38 17 25 27 c25 27 34 53 19 53 -5 0 -21 20
-38 45 -29 43 -54 60 -103 70 -22 4 -21 1 12 -35z"/>
<path d="M1963 1944 c-20 -9 -15 -39 10 -62 29 -27 33 -27 40 -3 3 14 15 21
43 23 l38 3 -28 18 c-29 20 -82 30 -103 21z"/>
</g>
</svg>
